<?xml version="1.0" encoding="UTF-8" standalone="no"?>
<!-- Created with Inkscape (http://www.inkscape.org/) -->

<svg
   width="44.898991mm"
   height="45.102821mm"
   viewBox="0 0 44.898991 45.10282"
   version="1.1"
   id="svg1"
   xml:space="preserve"
   inkscape:export-filename="logo-ccp-container.png"
   inkscape:export-xdpi="1024"
   inkscape:export-ydpi="1024"
   sodipodi:docname="logo-ccp-container.svg"
   inkscape:version="1.3.2 (091e20e, 2023-11-25, custom)"
   xmlns:inkscape="http://www.inkscape.org/namespaces/inkscape"
   xmlns:sodipodi="http://sodipodi.sourceforge.net/DTD/sodipodi-0.dtd"
   xmlns:xlink="http://www.w3.org/1999/xlink"
   xmlns="http://www.w3.org/2000/svg"
   xmlns:svg="http://www.w3.org/2000/svg"><sodipodi:namedview
     id="namedview1"
     pagecolor="#ffffff"
     bordercolor="#000000"
     borderopacity="0.25"
     inkscape:showpageshadow="2"
     inkscape:pageopacity="0.0"
     inkscape:pagecheckerboard="0"
     inkscape:deskcolor="#d1d1d1"
     inkscape:document-units="mm"
     inkscape:zoom="3.0553339"
     inkscape:cx="80.351284"
     inkscape:cy="99.33448"
     inkscape:window-width="2560"
     inkscape:window-height="1351"
     inkscape:window-x="-9"
     inkscape:window-y="-9"
     inkscape:window-maximized="1"
     inkscape:current-layer="g22" /><defs
     id="defs1"><linearGradient
       id="swatch15"
       inkscape:swatch="solid"
       gradientTransform="matrix(0.25695269,0,0,0.25892505,81.945125,75.941109)"><stop
         style="stop-color:#0d6efd;stop-opacity:1;"
         offset="0"
         id="stop15" /></linearGradient><linearGradient
       id="swatch14"
       inkscape:swatch="solid"
       gradientTransform="matrix(0.01852198,0,0,0.01852198,108.249,100.57969)"><stop
         style="stop-color:#ffffff;stop-opacity:1;"
         offset="0"
         id="stop14" /></linearGradient><linearGradient
       id="swatch13"
       inkscape:swatch="solid"><stop
         style="stop-color:#ffffff;stop-opacity:0;"
         offset="0"
         id="stop13" /></linearGradient><linearGradient
       inkscape:collect="always"
       xlink:href="#swatch13"
       id="linearGradient14"
       x1="81.110443"
       y1="97.863869"
       x2="126.11044"
       y2="97.863869"
       gradientUnits="userSpaceOnUse"
       gradientTransform="matrix(0.97091966,0,0,0.97544916,2.9899503,2.3970376)" /><linearGradient
       inkscape:collect="always"
       xlink:href="#swatch15"
       id="linearGradient15"
       x1="81.110443"
       y1="97.863869"
       x2="126.11044"
       y2="97.863869"
       gradientUnits="userSpaceOnUse"
       gradientTransform="matrix(0.97091966,0,0,0.97544916,2.9899503,2.3970376)" /></defs><g
     inkscape:label="Capa 1"
     inkscape:groupmode="layer"
     id="layer1"
     transform="translate(-81.13784,-75.306848)"><g
       id="g5"
       transform="matrix(0.9410323,0,0,0.93852702,5.8198657,7.3734864)"><g
         id="g23"><ellipse
           style="fill:url(#linearGradient14);fill-rule:evenodd;stroke:url(#linearGradient15);stroke-width:1.20761;stroke-dasharray:none"
           id="path12"
           cx="103.58733"
           cy="97.858261"
           rx="21.84569"
           ry="21.947607"
           transform="matrix(1.0626628,0,0,1.0654994,-6.1845551,-7.8564452)" /><g
           id="g22"><path
             d="m 94.542418,105.49313 c -1.031133,0 -1.869139,0.82027 -1.869139,1.82956 0,1.00931 0.838006,1.82956 1.869139,1.82956 1.031132,0 1.869149,-0.82025 1.869149,-1.82956 0,-1.00929 -0.838017,-1.82956 -1.869149,-1.82956 z m 0,2.43942 c -0.344228,0 -0.623043,-0.27291 -0.623043,-0.60986 0,-0.33694 0.278815,-0.60985 0.623043,-0.60985 0.344237,0 0.623053,0.27291 0.623053,0.60985 0,0.33695 -0.278816,0.60986 -0.623053,0.60986 z m 17.445352,-2.43942 c -1.03113,0 -1.86916,0.82027 -1.86916,1.82956 0,1.00931 0.83803,1.82956 1.86916,1.82956 1.03113,0 1.86915,-0.82025 1.86915,-1.82956 0,-1.00929 -0.83802,-1.82956 -1.86915,-1.82956 z m 0,2.43942 c -0.34424,0 -0.62305,-0.27291 -0.62305,-0.60986 0,-0.33694 0.27881,-0.60985 0.62305,-0.60985 0.34423,0 0.62305,0.27291 0.62305,0.60985 0,0.33695 -0.27882,0.60986 -0.62305,0.60986 z m 9.96878,-1.96371 v -4.13492 c 0,-1.00929 -0.83802,-1.82955 -1.86916,-1.82955 h -0.7819 l -1.33646,-4.360521 c -0.31931,-1.039811 -1.27879,-1.738071 -2.38784,-1.738071 h -6.08574 c -0.34423,0 -0.62304,0.272911 -0.62304,0.609849 v 10.788483 c -0.0421,0.061 -0.0794,0.12501 -0.11683,0.18905 H 97.774391 c -0.646417,-1.09164 -1.852003,-1.82955 -3.232075,-1.82955 -1.380084,0 -2.585669,0.73791 -3.232076,1.82955 h -4.244705 c -1.031131,0 -1.869149,0.82027 -1.869149,1.82957 0,1.0093 0.838018,1.82956 1.869149,1.82956 h 4.244705 c 0.646407,1.09166 1.851992,1.82957 3.232076,1.82957 1.380072,0 2.585658,-0.73791 3.232075,-1.82957 h 10.979599 c 0.64797,1.09166 1.85355,1.82957 3.23363,1.82957 1.38008,0 2.58567,-0.73791 3.23208,-1.82957 h 5.4908 c 1.03113,0 1.86914,-0.82026 1.86914,-1.82956 0,-0.5382 -0.24299,-1.01847 -0.62305,-1.3539 z m -34.890709,1.96371 c -0.344227,0 -0.623042,-0.27291 -0.623042,-0.60986 0,-0.33694 0.278815,-0.60985 0.623042,-0.60985 h 3.794352 c -0.03424,0.19821 -0.05607,0.40096 -0.05607,0.60985 0,0.2089 0.02181,0.41166 0.05607,0.60986 z m 7.476577,1.82957 c -1.373811,0 -2.492192,-1.0947 -2.492192,-2.43943 0,-1.34472 1.118381,-2.43941 2.492192,-2.43941 1.373821,0 2.492192,1.09469 2.492192,2.43941 0,1.34473 -1.118371,2.43943 -2.492192,2.43943 z m 23.460912,-9.75768 h -4.76947 v -2.439425 h 4.02181 z m -19.778846,7.92792 c 0.03425,-0.19821 0.05607,-0.40097 0.05607,-0.60986 0,-0.20889 -0.02181,-0.41166 -0.05607,-0.60986 H 108.3053 c -0.0343,0.1982 -0.056,0.40097 -0.056,0.60986 0,0.20889 0.0219,0.41166 0.056,0.60986 z m 13.763286,1.82955 c -1.37383,0 -2.4922,-1.09468 -2.4922,-2.43941 0,-1.34473 1.11837,-2.43942 2.4922,-2.43942 1.37382,0 2.49219,1.09469 2.49219,2.43942 0,1.34473 -1.11837,2.43941 -2.49219,2.43941 z m 0,-6.09854 c -0.68067,0 -1.31931,0.18296 -1.86916,0.49549 v -9.03365 h 5.4625 c 0.55451,0 1.03429,0.349141 1.19314,0.869063 l 0.1075,0.350668 h -4.27103 c -0.34424,0 -0.62305,0.2729 -0.62305,0.609849 v 3.65912 c 0,0.33696 0.27881,0.60986 0.62305,0.60986 h 7.47659 c 0.34422,0 0.62304,0.27292 0.62304,0.60986 v 3.65912 h -5.4908 c -0.64642,-1.09164 -1.852,-1.82956 -3.23208,-1.82956 z m 8.72268,4.26918 h -5.04062 c 0.0343,-0.1982 0.056,-0.40096 0.056,-0.60986 0,-0.20889 -0.0219,-0.41166 -0.056,-0.60985 h 5.04062 c 0.34423,0 0.62305,0.27291 0.62305,0.60985 0,0.33695 -0.27882,0.60986 -0.62305,0.60986 z m -33.644609,-5.4885 h 19.937539 c 0.34423,0 0.62304,-0.27291 0.62304,-0.60985 v -9.14802 c 0,-0.336938 -0.27881,-0.609849 -0.62304,-0.609849 h -1.06386 l -8.28206,-5.211382 v -5.156345 c 0,-0.336945 -0.278816,-0.609856 -0.623042,-0.609856 -0.344238,0 -0.623055,0.272911 -0.623055,0.609856 v 5.156345 l -8.282051,5.211382 h -1.063867 c -0.344238,0 -0.623053,0.272911 -0.623053,0.609849 v 9.14802 c 0,0.33694 0.278815,0.60985 0.623053,0.60985 z m 12.719814,-9.148011 v 7.927911 h -5.739203 v -7.927911 z m 6.594875,7.927911 -5.33251,0.0163 v -7.92791 l 5.33251,-0.01631 z m -9.34592,-13.30244 6.60132,4.154821 H 90.43369 Z m -9.345919,5.374529 h 5.245428 v 7.927911 h -5.245428 z"
             id="path1-8"
             style="fill:url(#swatch15);stroke-width:0.394507"
             sodipodi:nodetypes="sssssssssssssssssssscssccssscccscssscsccscssccssscscssssssccccccsccsccssssscccsccssssssccccscscssscssssccsssccsssscccccccccccccccccccc" /><text
             xml:space="preserve"
             style="font-weight:bold;font-size:6.35px;font-family:Lato;-inkscape-font-specification:'Lato Bold';fill:#0d6efd;fill-opacity:1;fill-rule:evenodd;stroke:none;stroke-width:1.219"
             x="88.144066"
             y="99.487312"
             id="text3"><tspan
               sodipodi:role="line"
               id="tspan3"
               style="font-size:6.35px;stroke-width:1.219"
               x="88.144066"
               y="99.487312">C</tspan></text><text
             xml:space="preserve"
             style="font-weight:bold;font-size:6.35px;font-family:Lato;-inkscape-font-specification:'Lato Bold';fill:#0d6efd;fill-opacity:1;fill-rule:evenodd;stroke:none;stroke-width:1.219"
             x="94.916756"
             y="99.492981"
             id="text4"><tspan
               sodipodi:role="line"
               id="tspan4"
               style="font-size:6.35px;stroke-width:1.219"
               x="94.916756"
               y="99.492981">C</tspan></text><text
             xml:space="preserve"
             style="font-weight:bold;font-size:6.35px;font-family:Lato;-inkscape-font-specification:'Lato Bold';fill:#0d6efd;fill-opacity:1;fill-rule:evenodd;stroke:none;stroke-width:1.219"
             x="101.6765"
             y="99.397881"
             id="text5"><tspan
               sodipodi:role="line"
               id="tspan5"
               style="font-size:6.35px;stroke-width:1.219"
               x="101.6765"
               y="99.397881">P</tspan></text></g></g></g></g></svg>
