<?xml version="1.0" encoding="UTF-8" standalone="no"?>
<!-- Created with Inkscape (http://www.inkscape.org/) -->

<svg
   width="85.062538mm"
   height="94.353142mm"
   viewBox="0 0 85.062538 94.353144"
   version="1.1"
   id="svg1"
   xml:space="preserve"
   inkscape:export-filename="marcador.svg"
   inkscape:export-xdpi="96"
   inkscape:export-ydpi="96"
   sodipodi:docname="marcador-client.svg"
   xmlns:inkscape="http://www.inkscape.org/namespaces/inkscape"
   xmlns:sodipodi="http://sodipodi.sourceforge.net/DTD/sodipodi-0.dtd"
   xmlns="http://www.w3.org/2000/svg"
   xmlns:svg="http://www.w3.org/2000/svg"><sodipodi:namedview
     id="namedview1"
     pagecolor="#ffffff"
     bordercolor="#000000"
     borderopacity="0.25"
     inkscape:showpageshadow="2"
     inkscape:pageopacity="0.0"
     inkscape:pagecheckerboard="0"
     inkscape:deskcolor="#d1d1d1"
     inkscape:document-units="mm"
     showguides="false" /><defs
     id="defs1"><linearGradient
       id="swatch24"
       inkscape:swatch="solid"><stop
         style="stop-color:#05a9ff;stop-opacity:1;"
         offset="0"
         id="stop24" /></linearGradient><linearGradient
       id="swatch23"
       inkscape:swatch="solid"><stop
         style="stop-color:#0597ff;stop-opacity:1;"
         offset="0"
         id="stop23" /></linearGradient><linearGradient
       id="swatch17"
       inkscape:swatch="solid"><stop
         style="stop-color:#0597ff;stop-opacity:1;"
         offset="0"
         id="stop17" /></linearGradient></defs><g
     inkscape:label="Capa 1"
     inkscape:groupmode="layer"
     id="layer1"
     transform="translate(-60.386936,-85.213668)"><path
       style="fill:#ffffff;fill-opacity:1;fill-rule:evenodd;stroke:#f74a55;stroke-width:2.519;stroke-dasharray:none;stroke-opacity:1"
       d="m 61.646438,128.25594 c 0.02285,-57.107716 82.560802,-54.039968 82.543532,-0.78365 -0.003,8.97048 -5.63611,20.80492 -13.44036,29.74151 -10.97383,12.56604 -27.57019,20.93396 -27.57019,20.93396 0,0 -14.717138,-7.86519 -27.348422,-20.61487 -8.447157,-8.52633 -14.188115,-20.39228 -14.18456,-29.27695 z"
       id="path6"
       sodipodi:nodetypes="ssscss" /><ellipse
       style="fill:#f74a55;fill-opacity:1;fill-rule:evenodd;stroke:#f74a55;stroke-width:1.33583;stroke-opacity:1"
       id="path7"
       cx="103.44064"
       cy="127.4723"
       rx="34.944225"
       ry="34.944218" /><g
       style="fill:#efefef"
       id="g28"
       transform="matrix(0.0703125,0,0,0.0703125,69.831462,158.46391)"><path
         d="m 480,-480 q -66,0 -113,-47 -47,-47 -47,-113 0,-66 47,-113 47,-47 113,-47 66,0 113,47 47,47 47,113 0,66 -47,113 -47,47 -113,47 z m -320,240 v -32 q 0,-34 17.5,-62.5 17.5,-28.5 46.5,-43.5 62,-31 126,-46.5 64,-15.5 130,-15.5 66,0 130,15.5 64,15.5 126,46.5 29,15 46.5,43.5 17.5,28.5 17.5,62.5 v 32 q 0,33 -23.5,56.5 Q 753,-160 720,-160 H 240 q -33,0 -56.5,-23.5 Q 160,-207 160,-240 Z m 80,0 h 480 v -32 q 0,-11 -5.5,-20 -5.5,-9 -14.5,-14 -54,-27 -109,-40.5 -55,-13.5 -111,-13.5 -56,0 -111,13.5 -55,13.5 -109,40.5 -9,5 -14.5,14 -5.5,9 -5.5,20 z m 240,-320 q 33,0 56.5,-23.5 Q 560,-607 560,-640 560,-673 536.5,-696.5 513,-720 480,-720 q -33,0 -56.5,23.5 -23.5,23.5 -23.5,56.5 0,33 23.5,56.5 23.5,23.5 56.5,23.5 z m 0,-80 z m 0,400 z"
         id="path1-3" /></g></g></svg>
