<?xml version="1.0" encoding="UTF-8" standalone="no"?>
<!-- Created with Inkscape (http://www.inkscape.org/) -->

<svg
   width="85.062538mm"
   height="94.353142mm"
   viewBox="0 0 85.062538 94.353144"
   version="1.1"
   id="svg1"
   xml:space="preserve"
   inkscape:export-filename="marcador.svg"
   inkscape:export-xdpi="96"
   inkscape:export-ydpi="96"
   xmlns:inkscape="http://www.inkscape.org/namespaces/inkscape"
   xmlns:sodipodi="http://sodipodi.sourceforge.net/DTD/sodipodi-0.dtd"
   xmlns="http://www.w3.org/2000/svg"
   xmlns:svg="http://www.w3.org/2000/svg"><sodipodi:namedview
     id="namedview1"
     pagecolor="#ffffff"
     bordercolor="#000000"
     borderopacity="0.25"
     inkscape:showpageshadow="2"
     inkscape:pageopacity="0.0"
     inkscape:pagecheckerboard="0"
     inkscape:deskcolor="#d1d1d1"
     inkscape:document-units="mm"
     showguides="false" /><defs
     id="defs1"><linearGradient
       id="swatch24"
       inkscape:swatch="solid"><stop
         style="stop-color:#05a9ff;stop-opacity:1;"
         offset="0"
         id="stop24" /></linearGradient><linearGradient
       id="swatch23"
       inkscape:swatch="solid"><stop
         style="stop-color:#0597ff;stop-opacity:1;"
         offset="0"
         id="stop23" /></linearGradient><linearGradient
       id="swatch17"
       inkscape:swatch="solid"><stop
         style="stop-color:#0597ff;stop-opacity:1;"
         offset="0"
         id="stop17" /></linearGradient></defs><g
     inkscape:label="Capa 1"
     inkscape:groupmode="layer"
     id="layer1"
     transform="translate(-60.386936,-85.213668)"><path
       style="fill:#ffffff;fill-opacity:1;fill-rule:evenodd;stroke:#17a773;stroke-width:2.519;stroke-dasharray:none;stroke-opacity:1"
       d="m 61.646438,128.25594 c 0.02285,-57.107716 82.560802,-54.039968 82.543532,-0.78365 -0.003,8.97048 -5.63611,20.80492 -13.44036,29.74151 -10.97383,12.56604 -27.57019,20.93396 -27.57019,20.93396 0,0 -14.717138,-7.86519 -27.348422,-20.61487 -8.447157,-8.52633 -14.188115,-20.39228 -14.18456,-29.27695 z"
       id="path6"
       sodipodi:nodetypes="ssscss" /><ellipse
       style="fill:#17a773;fill-opacity:1;fill-rule:evenodd;stroke:#17a773;stroke-width:1.33583;stroke-opacity:1"
       id="path7"
       cx="103.44064"
       cy="127.4723"
       rx="34.944225"
       ry="34.944218" /><g
       style="fill:#efefef"
       id="g27"
       transform="matrix(0.00661458,0,0,0.00661458,100.57038,148.20357)"><path
         d="m -1623.0993,-204.03731 q -451.0763,0 -766.8298,-315.75347 -315.7535,-315.75343 -315.7535,-766.82992 h -721.7222 V -5256.093 q 0,-297.7103 212.0058,-509.7162 212.0059,-212.0059 509.7164,-212.0059 H 2346.373 v 1443.4445 h 1082.5831 l 1082.5835,1443.4444 v 1804.3055 h -721.7223 q 0,451.07649 -315.7535,766.82992 -315.7534,315.75347 -766.8297,315.75347 -451.0765,0 -766.8298,-315.75347 -315.7536,-315.75343 -315.7536,-766.82992 H -540.51593 q 0,451.07649 -315.7535,766.82992 -315.75357,315.75347 -766.82987,315.75347 z m 0,-721.7222 q 153.366,0 257.1135,-103.74749 103.7477,-103.7476 103.7477,-257.1137 0,-153.3659 -103.7477,-257.1135 -103.7475,-103.7475 -257.1135,-103.7475 -153.3661,0 -257.1134,103.7475 -103.7477,103.7476 -103.7477,257.1135 0,153.3661 103.7477,257.1137 103.7473,103.74749 257.1134,103.74749 z M -2705.6826,-2008.3428 h 288.6889 q 153.3659,-162.3877 351.8395,-261.6243 198.4736,-99.2368 442.0549,-99.2368 243.5813,0 442.0549,99.2368 198.47357,99.2366 351.83937,261.6243 H 1624.6507 V -5256.093 h -4330.3333 z m 5412.9167,1082.58329 q 153.3659,0 257.1135,-103.74749 103.7476,-103.7476 103.7476,-257.1137 0,-153.3659 -103.7476,-257.1135 -103.7476,-103.7475 -257.1135,-103.7475 -153.3661,0 -257.1137,103.7475 -103.7474,103.7476 -103.7474,257.1135 0,153.3661 103.7474,257.1137 103.7476,103.74749 257.1137,103.74749 z M 2346.373,-2730.0652 H 3880.0326 L 3068.0952,-3812.6484 H 2346.373 Z m -2886.88893,-902.1527 z"
         id="path1"
         style="stroke-width:9.02152" /></g></g></svg>
